<svg id="Group_24" data-name="Group 24" xmlns="http://www.w3.org/2000/svg" width="250.387" height="144.773" viewBox="0 0 250.387 144.773">
  <g id="Group_13" data-name="Group 13">
    <path id="Path_16" data-name="Path 16" d="M-2357.554,704.017c-.028-.485.169-.65.637-.62.417.026,1.159.1,1.206-.03.246-.713,1.079-.963,1.269-1.492.213-.593.439-.652.911-.628.223.011.45-.019.672,0,.788.083.414-.63.646-.924.26-.328,1.021.245,1.016-.528,0-.49.192-.608.645-.619.75-.02.146-.8.523-1.029.317-.2.994.118.888-.67a6.773,6.773,0,0,1,0-1.008c0-.194-.006-.465.261-.435.947.106.756-.553.762-1.083.006-.476,0-.953,0-1.429,0-.294-.005-.613-.415-.567-.53.059-1.465-.269-1.517.2-.128,1.159-.868.729-1.439.816-.252.039-.69-.13-.686.263.01.855-.537.749-1.072.748-.553,0-1.258-.2-1.141.786a.192.192,0,0,1-.209.213c-.6-.062-.871.17-.827.8.019.263-.258.262-.448.249-.465-.032-.578.215-.554.619.018.307-.006.617,0,.924.014.406-.124.616-.576.626-.469.011-.557-.208-.554-.614q.021-2.522,0-5.045c0-.426.08-.723.588-.695.318.018.465-.145.448-.457-.028-.516.286-.592.7-.577a8.923,8.923,0,0,0,1.428-.01c.387-.049,1.091.343,1.033-.516s1.026-.2,1.008-.767c-.031-1.031.675-.726,1.2-.751s1.137.136,1-.756a.3.3,0,0,1,.35-.361c.52.05.714-.182.66-.681-.015-.142.036-.333.192-.322,1.095.082.914-.736.8-1.286-.219-1.047,1.524-.7,1.174-1.782-.032-.1.273-.157.439-.144.445.036.585-.169.574-.6-.013-.48-.327-.438-.637-.438-1.317,0-2.634.015-3.951-.008-.459-.008-.687.119-.641.612.039.417-.225.525-.583.518-.28-.006-.562.014-.841,0-.446-.028-.79.031-.731.611.034.333-.2.355-.467.441-.693.224-.811,1.165-1.573,1.344-.008,0-.009.053-.005.081.056.478-.156.63-.629.623-.6-.01-.493-.408-.5-.757-.014-1.513-.021-3.026-.031-4.538-.83-.073-1.078.291-1.023,1.117.081,1.2,0,2.409.028,3.614.014.633-.379.6-.774.526s-.221-.447-.257-.7c-.082-.576.338-1.436-.829-1.376-.191.01-.195-.24-.2-.406-.006-.308-.015-.617,0-.925.021-.458.011-.862-.635-.786-.284.034-.421-.146-.393-.412.087-.844-.606-.486-.967-.656-.391-.184.157-1.089-.7-.963a.5.5,0,0,1-.247-.029c-.07-.029-.179-.1-.177-.147.067-1.222-.843-.8-1.441-.834-.428-.022-.715-.076-.66-.595.043-.4-.184-.539-.559-.543s-.588.158-.555.55c.036.441-.17.547-.588.593-.854.094-.345.787-.426,1.2-.064.325-.2.863.474.815.48-.034.56.231.54.623-.016.335,0,.673,0,1.009,0,.287.1.536.418.5.738-.072.732.387.705.9-.015.279-.09.758.019.808.659.306.913,1.048,1.487,1.354a.949.949,0,0,1,.579.617c.241.642,1.044.875,1.353,1.553.063.139.69.063,1.048.018.624-.078.727.236.763.771.038.577.929-.072.988.593,0,.056,0,.112,0,.168,0,2.467,0,4.933,0,7.4,0,.349-.112.5-.483.508-.389,0-.582-.124-.549-.531a4.825,4.825,0,0,0,0-.5c-.014-.552.208-1.247-.785-1.165-.258.021-.238-.265-.243-.456a9.193,9.193,0,0,1,0-.924c.035-.461-.127-.682-.618-.639a8.995,8.995,0,0,1-1.009,0c-.188,0-.475.035-.469-.223.016-.6-.21-.875-.828-.812a.231.231,0,0,1-.228-.29c.136-.9-.458-.822-1.035-.809-.506.011-1.115.178-1.074-.711.015-.328-.33-.316-.585-.314-.228,0-.509,0-.485.312.069.895-.511.738-1.042.679V695c.349.249.818.386.77.972-.051.621.052,1.182.787,1.372.108.028.159.151.2.255.342.82,1.188,1.155,1.738,1.784.438.5.979.955,1.411,1.453a1.538,1.538,0,0,0,1.249.638c.3,0,.672-.029.791.331a1.24,1.24,0,0,0,1.452.843c.577-.029.809.244.786.806a11,11,0,0,0,.009,1.256c.06.826.259.967,1.135.826l.1-.095C-2357.562,704.969-2357.527,704.491-2357.554,704.017Z" transform="translate(2368 -626.83)" fill="#fff"/>
    <path id="Path_17" data-name="Path 17" d="M-2293.039,890.97v.008l.011,0v-.008Z" transform="translate(2305.657 -802.936)" fill="#fff"/>
    <path id="Path_18" data-name="Path 18" d="M-2354.419,822.681a3.582,3.582,0,0,0,.671,0c.17,0,.392-.019.376-.232-.045-.611.2-.857.815-.828.254.012.26-.265.243-.455-.062-.728.492-.572.9-.669.5-.12-.1-.972.617-.988.056,0,.131.019.165-.009.519-.424.788-1.117,1.471-1.374.038-.015.009-.212.01-.324,0-.252.016-.506,0-.756-.034-.45.105-.6.59-.773.58-.211.721-1.123,1.46-1.3.015,0,.01-.105.01-.161,0-1.4,0-2.8,0-4.2,0-.331-.089-.526-.469-.533s-.593.079-.569.508c.015.27.062.628-.367.6-.516-.029-.714.176-.665.681.029.306-.187.365-.438.365-.365,0-.729,0-1.093,0-.23,0-.51.006-.477.319.089.832-.471.691-.969.712-.545.023-1.334-.295-1.233.778a.2.2,0,0,1-.213.213c-.989-.108-.774.6-.785,1.149-.01.51.164,1.124-.732,1.04-.309-.029-.291.28-.293.5-.005.644-.014,1.289,0,1.934.009.387-.051.628-.536.636-.515.008-.6-.231-.6-.667.017-1.177-.06-2.359.027-3.53.066-.885-.255-1.171-1.073-1.047a1.315,1.315,0,0,0-.245.937c-.01.7.01,1.4-.01,2.1-.008.273.076.612-.279.762a.649.649,0,0,1-.21-.57c0-.667-.025-1.305-.809-1.57-.1-.034-.16-.157-.2-.261-.2-.545-.656-.624-1.157-.641-.327-.011-.774.093-.925-.244-.394-.88-1.14-.759-1.857-.766-.586-.006-1.208.083-1.458-.669a.394.394,0,0,0-.328-.239,5.4,5.4,0,0,0-2.954.149v2.02c.853-.135,1.178.232,1.031,1.069-.029.163.009.336-.007.5-.037.412.213.455.532.642a4.923,4.923,0,0,1,1.594,1.5c.384.587,1.293.677,1.361,1.523a3.046,3.046,0,0,0,.482.017c.56,0,1.121.012,1.681,0,.421-.011.736.075.692.588-.04.476.231.55.625.543.841-.016,1.686.048,2.52-.02s1.238.145,1.066,1.039c-.167.868.208,1.181,1.041,1.01C-2355.537,822.908-2355.26,822.54-2354.419,822.681Z" transform="translate(2368 -735.66)" fill="#fff"/>
    <path id="Path_19" data-name="Path 19" d="M-2306.034,834.973h0s.005-.007.008-.011Z" transform="translate(2316.465 -756.358)" fill="#fff"/>
    <path id="Path_20" data-name="Path 20" d="M-2076.432,1084.375c-.984-.026-.323-1.313-1.191-1.143a.443.443,0,0,1-.242-.062c-.071-.033-.188-.094-.187-.139.03-1.089-.771-.771-1.345-.78-.467-.007-.849-.017-.783-.655.037-.359-.2-.482-.535-.477-.421.006-1.019.169-1.225-.043-.443-.454-1.167-.931-1.293-1.311-.228-.685-.5-.71-1.033-.705-.578.005-1.3.226-1.272-.8.008-.252-.284-.219-.473-.223-.364-.009-.729,0-1.094-.007-.206,0-.453-.032-.421-.288.13-1.045-.6-.8-1.18-.84-.3-.022-.849.186-.843-.258.011-.941-.586-.754-1.119-.759-.448,0-.9-.018-1.346,0-.471.023-.836-.012-.773-.646.043-.431-.312-.383-.586-.384-1.01,0-2.019,0-3.028,0-.243,0-.586.05-.554-.323.064-.734-.378-.732-.893-.71-.476.02-.954-.015-1.429.009-.543.028-.966-.037-.884-.744.02-.173-.048-.381-.257-.357-.95.109-.75-.561-.759-1.089-.007-.476-.014-.954,0-1.43.012-.361-.064-.615-.5-.571-.484.05-.54-.24-.534-.627.013-.981.01-1.963,0-2.944,0-.233.087-.625-.261-.6-1.023.058-.751-.659-.757-1.189-.007-.558.063-1.086-.79-1.02-.666.052-.011-.945-.846-1.083-.577-.1-1.134-.854-1.516-1.437-.4-.606-1.264-.808-1.354-1.645a.777.777,0,0,0-.16-.018c-.709-.09-.641.394-.672.859-.038.554.349,1.379-.785,1.334-.3-.012-.23.335-.23.545-.006,1.683,0,3.365-.008,5.047,0,.384.043.677.532.629.43-.042.51.215.5.576-.012.673-.008,1.346,0,2.019,0,.24-.056.607.311.561.894-.112.825.471.825,1.028h.012c.006,0,.009.011.014.016h-.012s0,.007,0,.01-.01-.008-.015-.012v-.012l-3.187.012c.012.49-.211,1.128.7,1.036.254-.026.316.181.317.4,0,.393-.019.786.008,1.177.031.455-.178.6-.6.566-.223-.019-.449.005-.673,0-.447-.019-.869-.033-.793.625.041.351-.2.408-.487.4-.392-.006-.785.007-1.178,0-.3-.007-.508.086-.471.423.072.671-.39.553-.806.623-.464.078-1.32-.459-1.249.644.049.763-1.283.14-1.039,1.066.007.026,0,.078-.009.08-.812.152-.994,1.087-1.693,1.365-.176.07-.411.021-.424.292-.011.217-.1.475.09.638.229.2.537.083.81.1.566.04,1.314-.246,1.276.8-.009.253.275.233.466.233q2.607.005,5.216,0c.217,0,.533.028.506-.283-.084-.96.589-.71,1.106-.75.419-.032,1.018.233.983-.6-.034-.82.959-.078,1.09-.678a1.624,1.624,0,0,0,.02-.335c0-.252.01-.505,0-.757-.021-.448.039-.67.6-.862s.736-1.087,1.442-1.3c.026-.008-.026-.2.018-.237a5.649,5.649,0,0,0,1.388-1.474c.011-.023.106-.008.162-.008,1.037,0,2.075.009,3.113-.005.375,0,.6.1.558.516-.051.5.264.525.637.518.673-.012,1.346,0,2.018-.006.329-.005.564.069.519.459-.061.531.247.584.668.576.981-.018,1.962-.01,2.944,0,.238,0,.6-.066.57.3-.071.814.444.74.964.728s1.065,0,1.6,0c.253,0,.615-.009.594.307-.065,1.042.659.776,1.229.821.283.022.807-.153.8.195-.017,1.1.729.821,1.308.815.5-.005.9.013.826.688-.032.3.225.3.457.355.822.182.943,1.177,1.671,1.484.022.009-.016.132.013.158.494.439,1.172.716,1.288,1.492a1.54,1.54,0,0,0,.4.021c.308,0,.617.009.925,0s.577.044.547.441c-.032.421.12.637.571.59.306-.032.474.1.463.43-.011.364,0,.729,0,1.094,0,.264.011.523.376.524.448,0,1.135.179,1.3-.037.4-.532.944-.9,1.327-1.377C-2075.935,1085.7-2075.634,1084.4-2076.432,1084.375Z" transform="translate(2160.938 -942.735)" fill="#fff"/>
    <path id="Path_21" data-name="Path 21" d="M-2119.028,1108.961h-.01l0,.013h.013v-.013Z" transform="translate(2160.949 -984.234)" fill="#fff"/>
    <path id="Path_22" data-name="Path 22" d="M-2162.585,1050.5c-.706-.011-.656-.393-.654-.862q.012-3.907,0-7.813c0-.272.164-.77-.266-.757-.944.027-.744-.589-.756-1.12-.005-.252.061-.686-.035-.725-.682-.281-1.013-.958-1.574-1.317a1.591,1.591,0,0,1-.581-.6,13.653,13.653,0,0,0-1.39-1.445c-.187-.214-.664-.186-.637-.706.021-.42-.325-.368-.6-.377s-.5.069-.5.41c0,.308-.018.617,0,.924.023.436-.008.795-.6.729-.406-.045-.434.234-.433.542,0,1.708,0,3.416,0,5.124,0,.21-.06.553.24.536,1.073-.061.764.708.774,1.252s.062.808.736,1.028c.481.157.94.864,1.369,1.34.219.243.175.679.7.638.436-.034.363.321.374.592s-.022.515-.382.514c-.42,0-.84,0-1.26,0-.218,0-.421-.078-.394-.327.1-.916-.529-.8-1.089-.791-.359,0-.719-.005-1.078-.009,0,1.132,0,1.133-1.1,1.133-.392,0-.785.012-1.177,0-.5-.019-.977-.043-.912.7.027.307-.235.333-.471.335-.364,0-.729,0-1.092.005-.192,0-.471-.011-.443.253.1.927-.527.774-1.074.773-.508,0-1.137-.168-1.034.728.023.2-.161.294-.344.271-.57-.071-.837.144-.775.739.009.08-.114.251-.166.247-.7-.056-.892.3-.882.942.005.3-.34.229-.547.228-.4,0-.429.247-.437.556-.01.372.163.5.51.48.251-.013.5.006.756,0,.444-.017.865-.037.8.623-.044.422.28.405.568.405,1.737,0,3.474,0,5.21,0,.209,0,.553.063.531-.245-.074-1,.626-.778,1.169-.771s1.032.053.938-.746c-.041-.341.332-.276.519-.4.568-.379.82-1.153,1.591-1.308.021,0-.015-.175.024-.238.358-.58,1.163-.758,1.354-1.5,0-.015.105-.007.161-.007.728,0,1.456,0,2.185,0,.288,0,.522.062.487.408-.059.58.282.63.727.608s.886-.008,1.329-.009C-2162.335,1051.135-2161.89,1050.507-2162.585,1050.5Z" transform="translate(2212.539 -922.535)" fill="#fff"/>
    <path id="Path_23" data-name="Path 23" d="M-2069.055,1133.968s0,.008,0,.012h.012s0-.008,0-.012Z" transform="translate(2119.377 -1005.032)" fill="#fff"/>
    <path id="Path_24" data-name="Path 24" d="M-2138.014,1096.975h-.009s0,.007,0,.01l0,0,0,0h.008v-.009Z" transform="translate(2176.735 -974.266)" fill="#fff"/>
    <path id="Path_25" data-name="Path 25" d="M-2225.5,1017.538c-.017-.508.037-.9.7-.841.484.043.425-.334.426-.637,0-3.058-.005-6.115.009-9.173,0-.454-.109-.7-.608-.638-.333.041-.441-.109-.545-.451-.212-.7-1.151-.842-1.352-1.595,0-.009-.053-.01-.081-.006-.494.06-.654-.186-.6-.642.042-.364-.138-.485-.493-.49-.405-.007-.554.157-.533.549.019.364.006.729,0,1.094,0,.223.016.529-.3.5-.81-.083-.745.436-.732.96s-.007,1.066.006,1.6c.01.4-.1.675-.559.635-.536-.046-.574.276-.57.687.012,1.262.017,2.525,0,3.787-.006.439.088.707.6.663.4-.035.531.2.533.572,0,.466-.254.557-.649.549-.5-.01-1,.01-1.5.018.171.877-.242,1.089-1.058,1.021-.835-.07-1.682-.016-2.523-.016-.617,0-1.237.036-1.85-.01-.586-.044-.844.1-.864.756-.018.6-1.1-.07-1.068.72.027.677-.381.7-.869.687-.448-.013-.9.011-1.346-.006-.51-.02-.976-.031-.893.706.028.249-.169.334-.39.324-.384-.018-.634.055-.633.541,0,.528.329.492.671.5.184,0,.371.067.345.274-.112.88.493.75,1.016.748.545,0,1.186-.164,1.093.774-.026.253.256.25.45.254.365.007.729.005,1.094.005.311,0,.6.075.559.453-.078.7.352.691.838.672s.954-.02,1.43,0c.492.021.91.016.837-.679-.04-.374.252-.45.564-.448.365,0,.729,0,1.094,0,.241,0,.493-.039.463-.344-.084-.851.51-.676.989-.686.529-.011,1.206.193,1.092-.751.75-.156,1.016-.944,1.584-1.249.375-.2.6-.281.556-.711-.036-.386.19-.474.522-.466.28.006.542.047.491.4-.1.722.318.764.856.729.388-.025.779,0,1.168.007C-2225.516,1018.427-2225.482,1017.982-2225.5,1017.538Z" transform="translate(2264.241 -896.163)" fill="#fff"/>
    <path id="Path_26" data-name="Path 26" d="M-2323.887,931.167c-.047.437.22.5.577.5,1.009-.011,2.018,0,3.028-.007.209,0,.562.063.548-.227-.053-1.133.763-.77,1.323-.791.457-.017.814,0,.8-.644-.019-.614.511-.323.82-.383.043.851,1.143.847,1.29,1.558.085.411.244.493.6.493.4,0,.447-.234.444-.548-.006-.645-.009-1.29,0-1.934,0-.205-.088-.562.2-.555.662.016.638-.454.911-.839.317-.447.925-1.191,1.243-1.23,1-.124.805-.711.813-1.293.005-.449.015-.9,0-1.346-.014-.373.093-.6.513-.562s.525-.17.521-.552q-.021-2.06,0-4.121c0-.368-.086-.6-.51-.567-.492.044-.54-.265-.523-.643.014-.308-.008-.617,0-.925.014-.35-.04-.6-.487-.588-.376.008-.678.024-.642.522.017.223.005.515-.306.49-.619-.051-.55.413-.784.752a3.961,3.961,0,0,1-1.293,1.313c-.685.235-.705.518-.7,1.041.008.554.2,1.24-.784,1.164-.251-.019-.231.272-.236.462-.008.364-.007.729,0,1.093,0,.318-.09.588-.464.547-.622-.069-.7.277-.663.763.021.307,0,.616,0,.925s-.182.384-.438.372c-.239-.011-.6.065-.562-.312.079-.9-.537-.7-1.032-.705,0,.417,0,.834-.014,1.25-.013.4.125.993-.542.864-.555-.108-1.525.609-1.6-.657-.021-.328-.168-.442-.474-.436-.364.008-.729,0-1.094,0-.231,0-.507-.007-.47-.324.086-.74-.372-.724-.882-.706-.56.02-1.122.016-1.682,0-.379-.01-.683.031-.633.524.043.423-.195.515-.564.51-.9-.014-1.795-.02-2.691,0-.374.01-1.006-.192-.911.488.077.543-.625,1.529.683,1.558.181,0,.384.095.368.273-.094,1.1.7.839,1.283.829.506-.009.629.177.891.645.274.491.941.864,1.333,1.4.049.068.268.014.408.014.589,0,1.178.014,1.766,0C-2324.107,930.611-2323.835,930.687-2323.887,931.167Z" transform="translate(2337.522 -823.722)" fill="#fff"/>
    <path id="Path_27" data-name="Path 27" d="M-2271.3,973.85a9.545,9.545,0,0,0,1.419-1.408c.2-.229.743-.188.677-.753-.016-.141.051-.319.212-.306,1.138.088.726-.754.8-1.307.043-.321-.167-.813.452-.774.527.034.586-.253.581-.675-.016-1.26-.012-2.52,0-3.78,0-.447.03-.858-.622-.811-.322.023-.415-.216-.41-.506.006-.336-.017-.673,0-1.008.026-.411-.2-.463-.532-.644-.591-.317-.877-1.066-1.518-1.4-.012-.006-.006-.053,0-.081.049-.484-.24-.532-.628-.536-.437,0-.506.232-.5.587.012.5.007,1.008,0,1.512-.005.531.189,1.2-.753,1.109-.074-.007-.235.125-.232.188.024.583-.186.877-.82.833-.256-.018-.239.262-.243.453-.008.336-.017.673,0,1.008.019.367-.072.61-.5.562-.486-.055-.538.236-.533.621.014.98.02,1.96,0,2.94-.01.44.083.708.593.651.4-.045.438.214.444.531.007.358-.13.511-.492.5-.392-.017-.784,0-1.176-.005-.2,0-.471,0-.447-.255.087-.923-.532-.777-1.076-.764.174.857-.195,1.081-1.035,1.042-1.508-.071-3.022-.024-4.534-.016-.285,0-.7-.1-.661.388.06.719-.361.759-.891.735-.447-.02-.9,0-1.344-.005-.5-.006-1.058-.115-.974.711.031.312-.248.334-.477.318-.4-.028-.534.139-.539.537-.006.44.214.518.573.5.242-.014.482.035.448.345-.074.67.322.678.824.692.579.016,1.438-.362,1.393.806-.008.192.249.182.412.186.364.007.728,0,1.092.006.231,0,.509.009.477.32-.085.825.466.718.971.712.532-.006,1.064-.013,1.6,0,.388.011.674-.057.629-.537-.041-.429.209-.506.571-.5.952.012,1.9-.007,2.855.008.459.007.862,0,.785-.638-.021-.178.057-.365.265-.352.554.034.824-.154.771-.757-.029-.325.274-.29.492-.29s.523-.035.493.29c-.08.875.481.757,1.013.71C-2271.387,974.947-2271.591,974.067-2271.3,973.85Z" transform="translate(2300.685 -860.232)" fill="#fff"/>
    <path id="Path_28" data-name="Path 28" d="M-2194.025,1052.963h-.012v.011h0l.013,0v-.011Z" transform="translate(2223.321 -937.663)" fill="#fff"/>
    <path id="Path_29" data-name="Path 29" d="M-2268.01,952.97h-.009v.007l.006-.005-.006.006h.009v-.008Z" transform="translate(2284.849 -854.501)" fill="#fff"/>
    <path id="Path_30" data-name="Path 30" d="M-2340.328,878.486c.632.026-.055-1.025.68-.986.53.028.708-.192.653-.687-.016-.139.014-.343.157-.353.61-.046.976-.287.905-.959a1.375,1.375,0,0,0,1.307-1.169c1.05.113.79-.649.8-1.213.005-.457-.077-.93.646-.861.434.041.381-.314.381-.587,0-1.29-.008-2.579.007-3.869.006-.464,0-.842-.641-.785-.423.038-.4-.31-.384-.588.042-.582-.618-.639-.672-.494-.282.755-1,1.03-1.477,1.551-.029.031.016.131-.012.161-.452.473-1.137.724-1.348,1.431-.008.026-.194-.026-.237.017a6.388,6.388,0,0,1-1.47,1.4c-.071.037-.016.318-.016.487,0,.561-.022,1.123.006,1.682.023.456-.111.7-.608.637-.413-.052-.535.163-.525.546.017.644,0,1.29,0,1.934,0,.345.037.688-.488.68-.466-.007-.555-.257-.546-.65.015-.644.009-1.29,0-1.934,0-.238.065-.6-.314-.557-.841.088-.709-.47-.706-.965a9.216,9.216,0,0,1,.01-1.176c.109-.81-.137-1.229-1.013-1.074-.008,1.2-.019,2.4-.02,3.607,0,.334-.008.611-.471.6-.372,0-.6-.091-.562-.513s-.2-.527-.568-.506c-.307.018-.618-.014-.925.007-.428.03-.721-.052-.66-.578.045-.391-.2-.456-.524-.455q-3.154.008-6.308,0c-.325,0-.536.069-.541.457,0,.361.06.605.5.575.311-.021.661-.042.62.437-.038.442.269.433.559.612a11.747,11.747,0,0,1,1.445,1.4,9.12,9.12,0,0,0,.666.68,5.346,5.346,0,0,1,1.422,1.419c.3.6.527.689,1.048.675s1.065,0,1.6,0c.308,0,.585.029.543.435-.063.6.306.614.738.6s.841,0,1.261-.006c.567-.014,1.321.239,1.212-.8a.162.162,0,0,1,.076-.134,3.438,3.438,0,0,1,1.736-.027c.4.1.2.584.2.893.026,1.152.013,1.156,1.151,1.063-.007-.39,0-.781-.026-1.169C-2341.1,878.817-2341.038,878.457-2340.328,878.486Z" transform="translate(2357.862 -782.06)" fill="#fff"/>
    <path id="Path_31" data-name="Path 31" d="M-2336.293,470.873c.312-.036.334.227.334.463,0,.308.015.617,0,.924-.024.448.157.583.591.8a4.42,4.42,0,0,1,1.537,1.484,4.557,4.557,0,0,0,1.436,1.439c.663.3.649.584.624,1.08.269.35.658.123.983.2h0l.021.016a8.806,8.806,0,0,1,.129,2.479c.022.326.084.539.469.525.294-.011.6,0,.56-.415-.061-.589.291-.607.728-.6,1.148.016,2.3.01,3.446,0,.524,0,1.191.2,1.088-.755-.028-.261.239-.263.435-.266.364-.006.728,0,1.093,0,.23,0,.512-.011.478-.32-.1-.921.523-.8,1.085-.8.521-.006,1.208.211,1.1-.746a.239.239,0,0,1,.265-.263c.958.107.7-.583.747-1.1.027-.314-.163-.862.176-.894.678-.064.9-.334.9-.965,0-.226.286-.241.479-.234.431.016.5-.229.5-.589,0-.4-.234-.449-.55-.448-1.737,0-3.474,0-5.211,0-.228,0-.518,0-.48.313.121.99-.564.811-1.124.8-.516-.006-1.049-.091-.965.725.031.31-.265.333-.487.3-.755-.1-.518.515-.678.872-.174.39-1.069-.153-.969.693.051.434-.21.5-.571.5-.4,0-.46-.213-.452-.535.011-.5.006-1,.008-1.5.8.1,1.141-.187,1.038-1.051a18.849,18.849,0,0,1-.029-2.148c.812.132,1.189-.155,1.046-1.03a8.288,8.288,0,0,1-.037-1.16c.546.015,1.233.292,1.175-.726-.017-.3.3-.258.521-.271.3-.017.511.076.475.416-.061.568.262.626.717.621,1.568-.017,3.136-.014,4.7,0,.479,0,.922.031.847-.665-.032-.3.182-.372.436-.371.308,0,.617-.011.924,0,.449.017.634-.08.854-.6s1.024-.783,1.3-1.431c.009-.022.107-.013.162-.008.406.042.534-.151.527-.542-.006-.366-.153-.51-.5-.486-.322.022-.567-.062-.524-.454.057-.522-.24-.588-.666-.584q-2.352.022-4.7,0c-.5,0-.974-.042-.916.7a.325.325,0,0,1-.4.329c-.567-.07-.756.194-.715.723.007.087-.092.26-.148.262a5.976,5.976,0,0,1-1.665,0c-.431-.107-.161-.613-.2-.946.8.107,1.157-.2,1.02-1.046a7.188,7.188,0,0,1-.012-1.143c.843.166,1.171-.174,1.037-1.028a7.2,7.2,0,0,1-.027-1c1.152-.027,1.151-.03,1.155-1.2,0-.329.015-.659.022-.988.474,0,.948,0,1.422.016.207.007.566-.078.55.217-.06,1.129.75.783,1.315.8.477.016.837.067.8.677-.024.368.232.458.557.456,1.038-.007,2.076,0,3.113,0,.225,0,.523.007.5-.3-.09-.979.582-.814,1.158-.82.51-.005,1.129.165,1.038-.734-.032-.317.306-.222.493-.308.629-.288.73-1.205,1.527-1.317.005,0,0-.053.005-.081.105-.638-.292-.635-.76-.657-.551-.026-1.376.359-1.334-.779.011-.289-.347-.213-.554-.214-1.346-.008-2.693,0-4.039-.007-.348,0-.476.1-.62.473-.259.68-1.239.779-1.469,1.559,0,.016-.105.006-.162.006-.337,0-.675-.019-1.01,0-.6.043-.628-.608-.477-.683.625-.311.894-1.079,1.388-1.278.561-.226.667-.425.641-.913-.024-.443-.024-.888-.035-1.332,1.135.015,1.14.01,1.167-1.01h.012V452q1.231.23,1-1h.009v-.012c1.021-.026,1.025-.032,1.01-1.167l1.583.034c.264.006.563.031.549.367-.023.564.172.836.763.775.078-.008.247.117.244.172-.076,1.157.777.8,1.363.825.423.016.8-.007.739.595-.044.471.31.442.625.441.952,0,1.9-.014,2.857.006.449.009.784-.038.721-.614-.037-.338.174-.428.472-.42.336.009.673-.015,1.008.005.422.026.726-.046.669-.575-.034-.312.12-.472.441-.454.348.02.581-.045.589-.49.008-.478-.435-.4-.584-.58a18.336,18.336,0,0,1-1.51-1.553c-.243-.379-.344-.569-.784-.566-1.845.011-3.689,0-5.535,0v.011l-.013.01s0-.007,0-.01h0l0-.011h.011q0-.5,0-1c.77.094,1.221-.126,1-1.009h.009l0-.012c1.248-.05,1.3-.113,1.012-1.206-.748-.052-1.123.267-1.042,1.043h0c-.328.053-.7-.135-.983.169q0,.5-.005,1c-.35-.134-1.082.3-.974-.467.082-.58-.712-1.63.684-1.708a.292.292,0,0,0,.292-.335q0-2.775,0-5.551c-.662-.275-.936-1-1.5-1.333-.307-.18-.589-.2-.552-.627.034-.4-.189-.539-.565-.54s-.564.163-.558.555c0,.21.05.557-.249.53-.93-.081-.781.536-.779,1.088,0,.511.162,1.112-.735,1.033-.362-.032-.281.351-.282.584q-.011,2.565,0,5.13c0,.209-.068.564.22.55,1.044-.049.8.68.791,1.247-.01.52-.015.961.717.878.316-.036.319.249.316.477s.024.538-.283.505c-.881-.1-.735.51-.759,1.014l-.942.017h0l0,0a.542.542,0,0,0-.138.247c-.143.335-.216.742-.6.837a.721.721,0,0,0-.191.021,1.165,1.165,0,0,1-.172-.014.671.671,0,0,0-.123.36c.025.452-.2.589-.61.561a.352.352,0,0,0-.4.225h0q-.008.471-.018.942l-1,0v.01h0l-.011.01s0-.007,0-.01h-.009l.009-.01h.012c0-1.451,0-2.9.018-4.354.008-.517.018-.974-.712-.873-.143.02-.308-.054-.292-.223.056-.6-.172-.869-.8-.824-.265.019-.217-.26-.254-.446-.157-.787-1.244-.822-1.365-1.656a.6.6,0,0,0-.4,0c-.494.34-.467,1.274-1.352,1.205a4.745,4.745,0,0,0-.061.554c-.011.279-.017.56,0,.839.021.365-.069.612-.5.563-.487-.057-.536.232-.532.617.013,1.231.062,2.466-.016,3.692-.052.823.269,1.04.995.922.063.051.132.093.126.194,0,.021,0,.042,0,.063a1.778,1.778,0,0,0-.122-.257c.2.359-.306,1.078.462,1.116.651.032.663.4.594.821-.154.937.162,1.411,1.158,1.308h0q.006.979.012,1.958c-1.225.054-1.157-.239-1.161,1.21,0,.325-.01.65-.016.975-.787-.164-1.12.131-1.008.953a7.232,7.232,0,0,1,0,1.066c-.8-.108-1.16.195-1.023,1.045a7.265,7.265,0,0,1,.013,1.146c-.833.132-1.133-.2-1.046-1.058.081-.805,0-1.625.022-2.438.009-.439-.016-.793-.606-.732-.413.043-.525-.217-.521-.58.007-.673.007-1.346,0-2.019,0-.208.068-.556-.239-.536-1.078.071-.763-.7-.776-1.244-.011-.476.035-.91-.667-.846-.44.04-.367-.338-.363-.6.007-.452-.31-.472-.622-.5-.353-.029-.4.2-.411.485,0,.21.076.579-.189.571-1.154-.033-.816.794-.826,1.386-.009.454-.052.785-.627.71-.344-.045-.512.1-.508.474.013,1.094.01,2.187,0,3.281,0,.319.131.49.449.444.6-.087.719.234.677.74-.025.306-.127.712.023.907a6.06,6.06,0,0,0,1.491,1.5,1.609,1.609,0,0,1,.579.6,4.651,4.651,0,0,0,1.391,1.41c.479.275.653.43.624.917-.023.387-.027.776-.039,1.164-.832-.083-1.13.293-1,1.11a6.306,6.306,0,0,1-.007,1.077c-.85-.155-1.1.217-1.021,1.044a20.7,20.7,0,0,1,.01,2.157c-.84.136-1.156-.214-1.033-1.06a11.747,11.747,0,0,0,.014-1.259c.018-.5.05-.975-.7-.892-.311.034-.332-.231-.333-.466,0-.308-.015-.617,0-.924.023-.45-.059-.791-.622-.744-.352.029-.415-.168-.524-.481-.238-.68-1.009-.929-1.434-1.511-.146-.2-.653-.208-.605-.712.029-.306-.189-.363-.439-.361a6.836,6.836,0,0,1-1.007-.009c-.67-.1-.669.323-.737.8-.076.524-.956-.092-.98.612,0,.14-.005.28-.005.42,0,.84.01,1.681,0,2.521C-2337,470.48-2337.043,470.959-2336.293,470.873Zm13.8-16.744a.3.3,0,0,1,.076,0C-2322.448,454.132-2322.473,454.13-2322.5,454.129Zm.868,1.993a.423.423,0,0,1,.442.149A1.807,1.807,0,0,1-2321.629,456.122Z" transform="translate(2342.212 -424.735)" fill="#fff"/>
    <path id="Path_32" data-name="Path 32" d="M-2267.3,954.071c.119-.809-.169-1.2-1.006-1.113a8.744,8.744,0,0,1-.04,1.158c-.139.863.218,1.169,1.038,1.023A7.215,7.215,0,0,1-2267.3,954.071Z" transform="translate(2285.143 -854.481)" fill="#fff"/>
    <path id="Path_33" data-name="Path 33" d="M-2262.034,965.969v.009h.011v-.011Z" transform="translate(2279.872 -865.311)" fill="#fff"/>
    <path id="Path_34" data-name="Path 34" d="M-2230.568,1009.744c-.212,0-.525-.109-.606.122a2.953,2.953,0,0,0-.031,1.712c.111.414.616.144.946.2.006-.549.012-1.1.016-1.646C-2230.241,1009.913-2230.322,1009.747-2230.568,1009.744Z" transform="translate(2254.324 -901.696)" fill="#fff"/>
    <path id="Path_35" data-name="Path 35" d="M-2225.035,1021.957s0,.009,0,.013h.014l0-.011Z" transform="translate(2249.101 -911.876)" fill="#fff"/>
    <path id="Path_36" data-name="Path 36" d="M-2130.137,1102.847a8.064,8.064,0,0,1-1.076.013c-.159.766.083,1.152.937,1.029a8.725,8.725,0,0,1,1.077-.031C-2129.027,1103.079-2129.3,1102.731-2130.137,1102.847Z" transform="translate(2171.11 -979.131)" fill="#fff"/>
    <path id="Path_37" data-name="Path 37" d="M-2187.028,1058.971s0,.006,0,.009h.01v-.008Z" transform="translate(2217.492 -942.658)" fill="#fff"/>
    <path id="Path_38" data-name="Path 38" d="M-2193.962,1052.872c.044,1.072.049,1.075,1.168,1C-2192.631,1052.893-2193.2,1052.765-2193.962,1052.872Z" transform="translate(2223.258 -937.561)" fill="#fff"/>
    <path id="Path_39" data-name="Path 39" d="M-2181.038,1065.957s0,.009,0,.014l.013-.013Z" transform="translate(2212.51 -948.469)" fill="#fff"/>
    <path id="Path_40" data-name="Path 40" d="M-2187.11,1058.882c-.075,1.122-.072,1.126,1,1.168C-2186,1059.283-2186.132,1058.721-2187.11,1058.882Z" transform="translate(2217.582 -942.562)" fill="#fff"/>
    <path id="Path_41" data-name="Path 41" d="M-2131.026,1102.965h0l-.011,0v.009h.008s0-.007,0-.011Z" transform="translate(2170.925 -979.248)" fill="#fff"/>
    <path id="Path_42" data-name="Path 42" d="M-2138.086,1096.937c-.137.948.379,1.134,1.168,1C-2136.946,1096.882-2136.95,1096.879-2138.086,1096.937Z" transform="translate(2176.806 -974.218)" fill="#fff"/>
    <path id="Path_43" data-name="Path 43" d="M-2161.573,387.87c.632-.105.229-.674.363-1.011.809,0,1.619-.011,2.428,0,.206,0,.572-.086.57.182,0,.7.328.919.962.873a.2.2,0,0,1,.2.228c-.086,1.086.719.741,1.254.76.483.018.926-.019.826.683-.055.391.2.454.526.453,2.1-.005,4.2-.008,6.3,0,.384,0,.591-.116.547-.526s.1-.644.558-.6.467-.26.472-.6c.006-.41-.246-.437-.552-.433-.392,0-.981.154-1.138-.04-.419-.518-.7-1.125-1.467-1.21.114-.98-.587-.787-1.141-.783-.51,0-1.041.106-.958-.72.036-.369-.33-.306-.567-.307-1.2,0-2.4,0-3.6.008,0,0,0,.008,0,.012l-.015.011s0-.007,0-.011h0a.09.09,0,0,0,0-.012h.011c.008-.541-.253-1.25.752-1.16a.239.239,0,0,0,.245-.281c-.113-.9.533-.763,1.031-.714.8.079,1.311-.091,1.161-1.034l.01,0,0-.011h0a2.127,2.127,0,0,1-.049-.284c.014.086.031.179.049.284a6.809,6.809,0,0,1,.987.011c.82.123,1.2-.157,1.026-1.01h.01a.116.116,0,0,1,0-.013c.767-.148,1.142.092,1.038.95-.069.568-.166,1.246.806,1.12a.262.262,0,0,1,.269.272c-.044.588.5.565.739.82.423.446.6,1.123,1.329,1.271-.124.98.578.789,1.131.788.507,0,1.051-.112.968.716-.031.308.274.295.5.3,1.037,0,2.074-.007,3.111.006.362,0,.613-.068.569-.5-.042-.416.173-.556.553-.513.62.07.718-.621.531-.7a4.485,4.485,0,0,1-1.534-1.359c-.014-.015-.068.007-.08-.007-.483-.564-1.043-1.065-1.5-1.641-.438-.55-1.144-.834-1.442-1.517-.028-.063-.317-.014-.486-.014-.925,0-1.85-.012-2.774,0-.388.007-.549-.126-.553-.532,0-.424.125-.629.574-.6.335.022.672,0,1.009,0,.241,0,.491-.042.46-.346-.079-.757.417-.7.906-.687q.882.016,1.766,0c.33-.006.562.078.521.464-.057.531.258.58.675.576q1.891-.022,3.783,0c.462.005.854,0,.779-.643-.042-.359.264-.306.487-.412.64-.3.938-1.008,1.512-1.438.208-.156.212-.661.72-.6.392.044.45-.206.453-.529,0-.359-.148-.513-.5-.5-.252.011-.5-.01-.757,0-.517.025-.976.013-.905-.719.041-.418-.282-.406-.571-.405-.953,0-1.906.018-2.858-.007-.508-.014-.823.1-.768.688.031.325-.155.448-.462.441s-.617.018-.924,0c-.434-.03-.509.188-.709.56-.3.564-1.026.867-1.354,1.493-.019.036-.16.009-.244.009-.308,0-.616,0-.925,0-.325.005-.618.012-.611-.46,0-.367.138-.459.494-.6.681-.27.815-1.26,1.648-1.423.014,0,.012-.105.012-.161q0-2.06,0-4.12c0-.277-.05-.537-.4-.5-.716.066-.752-.369-.73-.9.018-.418-.015-.839-.025-1.259h-1.01c0,.5.21,1.136-.7,1.039a.266.266,0,0,0-.3.315c.053.54-.534.567-.644.753-.379.64-1.031.988-1.4,1.575-.163.263-.034.71-.03,1.074,0,.3-.093.516-.426.471-.66-.088-.709.284-.7.8.022,1.594.013,3.189,0,4.783,0,.252.112.668-.309.644-.818-.047-.7.522-.746,1h-.991c-1.164,0-1.164,0-1.167,1.14h0c-.812.013-1.624.023-2.437.039-.328.007-.614.008-.606-.463.007-.368.111-.489.5-.59.689-.178.729-1.216,1.546-1.323a1.027,1.027,0,0,0,.011-.242c0-1.4,0-2.8,0-4.205,0-.3-.016-.6-.424-.56-.583.057-.636-.284-.607-.728.018-.279-.011-.561.006-.841.022-.373-.157-.485-.5-.481-.326,0-.45.092-.545.451-.19.714-1.15.834-1.36,1.581,0,.017-.111-.008-.161.011-.714.265-.862,1.184-1.62,1.414-.042.013-.015.264-.016.4,0,.28-.01.561,0,.841.014.329-.073.564-.46.517-.535-.064-.575.249-.571.667.015,1.43-.018,2.86.017,4.289.015.6-.387,1.506.826,1.456a.163.163,0,0,1,.118.1,3.624,3.624,0,0,1,.019,1.661c-.113.468-.631.26-.945.229-.809-.08-1.239.134-1.049,1.022l-1,.005C-2162.237,387.342-2162.5,388.023-2161.573,387.87Z" transform="translate(2196.898 -368)" fill="#fff"/>
    <path id="Path_44" data-name="Path 44" d="M-2181.2,1065.921c-.187.853.207,1.126,1,1C-2180.186,1065.859-2180.189,1065.855-2181.2,1065.921Z" transform="translate(2212.687 -948.42)" fill="#fff"/>
    <path id="Path_45" data-name="Path 45" d="M-2181.039,1065.973h.01a.111.111,0,0,1,0-.012Z" transform="translate(2212.51 -948.472)" fill="#fff"/>
    <path id="Path_46" data-name="Path 46" d="M-2175.037,1071.967v.01h.014l0-.011Z" transform="translate(2207.519 -953.466)" fill="#fff"/>
    <path id="Path_47" data-name="Path 47" d="M-2050.021,1133.981s0-.01,0-.014l-.012.012Z" transform="translate(2103.559 -1005.031)" fill="#fff"/>
    <path id="Path_48" data-name="Path 48" d="M-2125.046,467.979h.013l-.011-.012Z" transform="translate(2165.943 -451.14)" fill="#fff"/>
    <path id="Path_49" data-name="Path 49" d="M-2225.043,535.987h.012l-.012-.01Z" transform="translate(2249.107 -507.701)" fill="#fff"/>
    <path id="Path_50" data-name="Path 50" d="M-2175.04,504.977h.013l-.012-.011S-2175.04,504.973-2175.04,504.977Z" transform="translate(2207.521 -481.91)" fill="#fff"/>
  </g>
  <g id="Group_14" data-name="Group 14" transform="translate(165.358)">
    <path id="Path_51" data-name="Path 51" d="M-1423.725,376.431c.6.289.791,1.12,1.518,1.324.024.007-.027.195.017.237a5.9,5.9,0,0,1,1.387,1.482c.012.024.106.009.162.009h4.2c.236,0,.5-.028.473-.332-.07-.739.393-.718.9-.7q.84.028,1.682,0c.394-.013.669.06.617.541-.047.435.216.513.574.5.308-.013.617.01.925,0,.382-.018.557.123.562.532,0,.425-.131.609-.578.6-.953-.021-1.909.039-2.858-.021-.69-.044-.631.377-.727.824-.115.537-1.013-.159-1.071.6,0,.056.019.132-.01.165-.454.529-1.145.855-1.355,1.595,0,.017-.11-.006-.161.012-.679.245-.7,1.259-1.542,1.332a.659.659,0,0,0-.006.32c.208.577,1.368.357,1.116,1.328a2.02,2.02,0,0,0,.4.083c1.065.007,2.13.006,3.2,0,.222,0,.522.018.489-.3-.077-.734.366-.721.883-.714.563.008,1.32.258,1.226-.792-.005-.062.15-.206.219-.2.643.069.592-.461.855-.785.383-.472,1.127-.666,1.329-1.383.888.128.781-.511.725-1.014-.092-.815.138-1.231,1.019-1.045-.089-.367.329-.99-.416-1.019-.584-.023-.6-.317-.6-.75.013-1.647.01-3.295,0-4.942,0-.227.11-.636-.223-.623-1.134.044-.758-.768-.788-1.321-.024-.445.02-.864-.634-.787-.358.042-.4-.215-.516-.5-.252-.648-1.235-.761-1.256-1.62a.152.152,0,0,0-.079-.015c-.911.113-.674-.552-.7-1.036h-1.01c0,.532-.019,1.065-.012,1.6,0,.335-.114.563-.472.543-.536-.03-.568.289-.564.7q.019,1.85,0,3.7c0,.431.009.791.6.753.312-.02.462.185.432.486-.046.469.139.678.619.63.345-.034.432.185.407.478-.018.208.073.5-.262.521-.5.026-1.238.212-1.462-.039-.426-.476-.694-1.064-1.415-1.168.088-1.082-.7-.836-1.289-.82-.523.014-.887-.048-.8-.708.052-.407-.249-.427-.551-.426-1.009,0-2.018.011-3.027,0-.392-.006-.673.055-.618.538s-.254.567-.624.582c-.28.011-.561.016-.841.006-.353-.012-.591.059-.6.5C-1424.261,376.266-1424.029,376.285-1423.725,376.431Z" transform="translate(1446.405 -368)" fill="#fffefd"/>
    <path id="Path_52" data-name="Path 52" d="M-1113.021,834.967l-.011,0v.01h.011Z" transform="translate(1187.569 -756.36)" fill="#fffefd"/>
    <path id="Path_53" data-name="Path 53" d="M-1168.689,704.968a6.416,6.416,0,0,1-.007-.925c0-1.269,0-1.259,1.252-1.3.275-.008.752.16.751-.285,0-.862.551-.739,1.08-.741.558,0,1.252.18,1.137-.8-.007-.058.091-.186.132-.183.666.052.955-.252.922-.911,0-.046.179-.152.268-.144.544.048.532-.384.772-.679a6.432,6.432,0,0,1,1.534-1.428c.4-.244.545-.368.56-.794.021-.589-.331-1.435.823-1.371.149.008.187-.186.188-.33,0-.421,0-.841,0-1.262,0-.174-.042-.385-.248-.371-.623.042-.858-.215-.788-.834.036-.319-.243-.322-.473-.317s-.539-.035-.512.276c.091,1.037-.626.833-1.217.843-.224,0-.6-.065-.647.026-.289.6-1.172.965-1.235,1.3-.157.847-.616.761-1.115.7-.85-.1-1.176.188-1.065,1.055.064.5.17,1.13-.724,1.043-.255-.025-.266.241-.269.44-.005.308-.01.617,0,.925.012.428-.016.767-.605.769s-.52-.364-.52-.729c0-2.328.07-4.66-.033-6.984-.043-.969,1.505-.531,1.175-1.6-.041-.131.388-.108.6-.118.392-.018,1.083.084,1.126-.043.238-.693.8-1,1.259-1.456.232-.23.192-.736.752-.672.139.016.314-.045.3-.217-.039-.588.168-.881.806-.829.264.021.253-.25.257-.444.007-.365,0-.729,0-1.094,0-.229.016-.55.28-.533,1.1.072.845-.7.834-1.292-.01-.5,0-.907.682-.825.312.038.353-.2.352-.443,0-.365-.006-.73,0-1.094.007-.29-.063-.515-.41-.481-.478.047-.667-.159-.625-.629.025-.28-.139-.415-.41-.4-.211.01-.562-.072-.56.211.009,1.087-.767.788-1.353.81-.447.016-.947-.092-.857.641.045.367-.31.281-.477.411a18.821,18.821,0,0,0-1.568,1.458c-.044.043.005.17-.024.245-.037.1-.112.257-.166.255-1.148-.042-.809.806-.815,1.4-.005.526-.083.889-.728.821-.346-.036-.412.2-.407.489.006.308-.01.617,0,.925.016.378-.031.641-.527.641-.515,0-.507-.3-.505-.657.006-1.206-.058-2.417.023-3.617.057-.852-.252-1.107-1.025-.966-.007,1.538-.012,3.077-.026,4.615,0,.234.087.558-.286.595-.263.026-.722.14-.75-.146-.064-.641-.292-.955-.952-.911-.042,0-.139-.123-.133-.183.054-.6-.185-.888-.81-.818a.2.2,0,0,1-.219-.206c.1-1.055-.663-.792-1.224-.794-.535,0-1.05.038-.966-.752a.316.316,0,0,0-.354-.371q-2.186,0-4.373,0c-.289,0-.394.169-.385.433.009.244-.056.572.314.57.537,0,.778.206.721.753-.018.17.036.382.249.365,1.021-.081.73.662.746,1.187.015.483-.077.992.688.907.31-.035.286.233.356.451.225.7,1.25.8,1.28,1.669a1.958,1.958,0,0,0,.321.02c.28,0,.561.015.841,0,.436-.025.572.124.79.571.27.553,1.005.862,1.347,1.473.034.061.266.013.406.013a13.888,13.888,0,0,0,1.764-.013c.9-.115.47,1.5,1.525,1.115a1.32,1.32,0,0,1,.124.379c.008,1.822,0,3.645.007,5.467,0,.338-.169.43-.472.428s-.567-.029-.555-.434c.009-.308-.021-.618,0-.925.042-.519-.036-.9-.7-.8-.168.024-.393-.02-.388-.221.015-.58-.168-.908-.813-.821a.2.2,0,0,1-.228-.2c.094-1.129-.739-.776-1.3-.8-.45-.017-.865.016-.792-.635.033-.293-.166-.383-.426-.382-.365,0-.729-.014-1.093,0-.386.016-.675-.047-.628-.533.041-.426-.21-.49-.572-.51-1.479-.081-1.479-.091-1.479,1.375,0,.392-.007.785,0,1.177,0,.184-.045.493.2.478,1.1-.067.814.718.809,1.293,0,.506.3.6.626.891.5.443.991.969,1.478,1.465.227.231.224.666.726.612.142-.015.332.036.322.192-.075,1.18.8.786,1.376.813.444.021.547.189.781.584.339.572,1.129.858,1.409,1.572.008.021.106,0,.162.011.49.058,1.13-.233,1.44.153s.07,1.026.107,1.553c.008.109,0,.218.006.327C-1168.939,706.078-1168.566,705.816-1168.689,704.968Z" transform="translate(1244.265 -627.304)" fill="#fffefd"/>
    <path id="Path_54" data-name="Path 54" d="M-1350.033,1133.98h.01s0-.008,0-.011h-.012Z" transform="translate(1384.676 -1005.032)" fill="#fffefd"/>
    <path id="Path_55" data-name="Path 55" d="M-1524.208,1071.6c-.007.007-.014.011-.021.018s0-.012.006-.018h-.006s.006-.008.01-.012h.012c.024-.351-.269-.948.262-.955.9-.011.72-.555.726-1.06.006-.533.013-1.066,0-1.6-.01-.364.073-.617.5-.572.491.052.532-.243.53-.625-.01-1.626-.014-3.253,0-4.879.005-.475-.021-.839-.65-.771-.361.039-.382-.242-.381-.51,0-.392.007-.785,0-1.178-.02-.684-.506-.452-.855-.395-.184.03-.181.268-.166.432.067.73-.494.568-.9.67-.5.123.1,1-.623.98-.457-.01-.688.126-.636.618.044.417-.253.4-.549.428-.715.06-.386,1.417-1.415,1.163-.083-.02-.071.4-.08.622a5.948,5.948,0,0,0,0,.673c.034.471-.1.771-.646.719-.449-.043-.484.25-.481.592.007.982.009,1.963,0,2.944,0,.258.1.672-.32.643-.836-.059-.709.485-.705.982,0,.449-.017.9.005,1.346.023.474-.019.851-.648.771-.176-.022-.379.05-.359.256.1,1.02-.623.848-1.219.857q-.715.011-1.43,0c-.317-.005-.581.057-.544.448.057.6-.323.595-.747.589-.953-.012-1.907,0-2.86,0-.281,0-.625-.031-.586.391.06.641-.32.658-.784.639s-.954.008-1.43-.008c-.5-.016-.976-.052-.9.7.032.307-.236.331-.471.332-.393,0-.785,0-1.177,0-.194,0-.482-.005-.452.246.132,1.1-.642.872-1.244.869-.476,0-.927-.036-.851.664.032.3-.179.373-.434.372-.393,0-.785,0-1.178,0-.266,0-.548.014-.516.376.046.524-.178.716-.68.66-.139-.016-.334.029-.321.189.091,1.1-.7.827-1.284.817-.517-.009-.888.038-.819.7.033.319-.208.428-.5.429-.393,0-.785,0-1.178,0-.248,0-.475.06-.449.36.047.531-.387.487-.652.706-.476.392-.777.97-1.366,1.332a1.4,1.4,0,0,0,0,1.325c.516.413.872,1.108,1.337,1.328,1.135.534,1.674.043,1.692-1.22a2.932,2.932,0,0,1,.009-.42c.111-.681.889-.064,1.059-.518.142-.381-.057-.949.689-.861a3.558,3.558,0,0,0,1.125-.019c.112-.818,1.014-.95,1.282-1.54a.923.923,0,0,1,.636-.594c.641-.247,1.052-.925,1.459-1.4.315-.367.442-.647.958-.639.565.009,1.3.249,1.229-.794-.018-.251.282-.217.469-.221.365-.009.729-.006,1.094-.005.275,0,.558-.058.524-.391-.083-.8.433-.752.959-.733.392.013.785,0,1.177,0,.505.009,1.028.11,1-.7-.013-.386.386-.326.657-.328.953-.006,1.906,0,2.86-.007.257,0,.658.1.626-.334-.055-.753.412-.7.907-.692.56.013,1.122-.011,1.682.008.393.013.67-.055.614-.538-.05-.436.212-.5.571-.5.953.012,1.91.052,2.859-.013.673-.046.768.254.815.818.044.519.917-.118,1.016.676.089.713,1.149.83,1.328,1.6.931-.115.777.544.785,1.094.007.529-.185,1.2.761,1.089.071-.009.232.127.228.186-.086,1.112.73.789,1.3.809.444.015.864-.031.8.628-.04.415.283.411.573.411,1.71,0,3.421-.005,5.132,0,.387,0,.676-.058.635-.537-.036-.431.218-.516.578-.5.308.014.618-.018.925.006.639.049.693-.631.509-.725a2.73,2.73,0,0,1-1.29-1.315c-.023-.048-.213-.015-.324-.022-.14-.009-.345-.024-.338-.174.034-.688-.32-.922-.948-.915-.069,0-.207-.157-.2-.232.1-1.109-.713-.8-1.289-.821-.433-.014-.878.055-.8-.615.04-.34-.171-.427-.469-.42-.393.009-.785,0-1.178,0-.232,0-.51-.009-.479-.32.083-.833-.481-.706-.978-.706-1.094,0-1.094,0-1.094-1.068,0-.224,0-.449,0-.673s.058-.423.314-.4c.9.085.707-.528.687-1.035l-3.019-.012S-1524.208,1071.6-1524.208,1071.6Z" transform="translate(1555.831 -942.652)" fill="#fffefd"/>
    <path id="Path_56" data-name="Path 56" d="M-1331.634,1053.417c-.235.014-.487-.062-.467-.356.039-.559-.33-.585-.7-.837-.459-.311-.675-1.026-1.35-1.2.12-.948-.564-.733-1.088-.754s-1.2.225-1.1-.742c.026-.259-.224-.279-.426-.281-.364,0-.729-.008-1.094,0-.279,0-.534-.044-.5-.4.061-.634-.324-.662-.79-.641-.42.019-.841,0-1.261,0-1.116,0-1.12,0-1.145-1.134-.332,0-.664.014-1,.009-.558-.009-1.179-.127-1.071.786a.306.306,0,0,1-.326.318c-.475.014-.952.02-1.427,0-.339-.013-.384-.274-.37-.544.011-.211-.059-.543.253-.525.64.037.6-.565.851-.769.487-.393,1.116-.583,1.286-1.294,1.067.1.76-.684.778-1.232.016-.5-.11-1.045.717-.97.375.034.31-.323.311-.56.005-1.68,0-3.361.007-5.041,0-.381-.035-.679-.527-.623-.426.049-.524-.191-.5-.56.017-.335-.01-.672,0-1.008.023-.517-.55-.621-.631-.462-.349.689-1.158.875-1.508,1.5s-1.17.819-1.394,1.55c-.005.018-.116-.012-.16.012-.6.334-.78,1.155-1.523,1.347-.037.01-.012.263-.013.4,0,.308-.007.616,0,.924.007.292-.075.524-.414.479-.738-.1-.717.363-.715.879q.018,3.907,0,7.813c0,.268.163.758-.3.727-.916-.062-.69.556-.731,1.037.361,0,.721.012,1.082,0,.519-.014,1.207.218,1.1-.743-.017-.155.118-.25.276-.251a6.072,6.072,0,0,1,2.479.092c.435.213.832.821,1.349,1.195.242.175.2.821.847.767.263-.022.2.265.265.441.241.688,1.24.805,1.286,1.663a1.827,1.827,0,0,0,.321.019c.28,0,.562.018.841,0,.456-.034.777.046.725.617-.037.415.27.414.564.414,1.71,0,3.42-.007,5.13,0,.375,0,.6-.091.555-.512-.054-.5.257-.539.633-.521.252.012.5.008.757,0,.3-.008.641.073.663-.412C-1331.073,1053.643-1331.161,1053.389-1331.634,1053.417Z" transform="translate(1384.619 -922.334)" fill="#fffefd"/>
    <path id="Path_57" data-name="Path 57" d="M-1244.046,1071.974h.014v-.01h-.012S-1244.045,1071.97-1244.046,1071.974Z" transform="translate(1296.529 -953.463)" fill="#fffefd"/>
    <path id="Path_58" data-name="Path 58" d="M-1281.988,1014.2c.006-.353-.022-.711.492-.669.476.039.547-.229.542-.624-.014-1.289,0-2.577-.009-3.866,0-.233.086-.626-.261-.6-.941.058-.756-.576-.761-1.111,0-.476-.015-.953,0-1.429.016-.416-.038-.73-.572-.677-.466.046-.567-.243-.555-.633.009-.308-.006-.616,0-.924.01-.344-.039-.6-.486-.6-.389,0-.588.121-.543.529s-.1.646-.558.6c-.379-.036-.5.179-.466.514.039.416-.26.4-.534.549-.581.322-.812,1.1-1.511,1.336-.019.007-.009.106-.009.162q0,4.707,0,9.413c0,.261.008.556.37.521.7-.068.676.37.661.849-.014.444.009.888.016,1.333.305,0,.61-.007.916-.012.557-.009,1.232.192,1.146-.8-.029-.331.328-.313.58-.32.275-.008.436.124.411.4-.048.551.312.562.707.772a3.23,3.23,0,0,1,1.346,1.332c.23.735.583.652,1.065.665.522.015,1.187-.208,1.121.742-.021.3.289.283.512.286.365.006.729,0,1.094.007.233.005.518.051.487.336-.1.922.515.793,1.073.784.5-.008,1.01,0,1.515,0,.192,0,.489.017.476-.221-.068-1.2.8-.843,1.433-.9.255-.025.716.131.707-.227-.031-1.138.772-.766,1.329-.79.458-.019.849,0,.787-.647-.041-.429.3-.4.58-.389.325.011.537-.059.536-.454,0-.361-.066-.6-.5-.579-.251.015-.6.017-.588-.31.046-.894-.563-.711-1.07-.718-.477-.005-.954-.016-1.43,0-.4.016-.667-.08-.614-.551.089-.79-.548-.491-.911-.612-.473-.157.113-.987-.62-.987-.168,0-.336,0-.5,0-1.431,0-2.863-.05-4.291.019-.817.039-1.222-.157-1.071-1.024-.5-.008-1-.023-1.5-.02C-1281.768,1014.656-1281.994,1014.595-1281.988,1014.2Z" transform="translate(1332.433 -896.163)" fill="#fffefd"/>
    <path id="Path_59" data-name="Path 59" d="M-1192.584,925.421c-.98.04-1.963.013-2.944.008-.244,0-.583.045-.546-.331.075-.751-.394-.71-.893-.7-.589.016-1.178,0-1.767.007-.186,0-.5-.043-.486.194.06,1.089-.712.833-1.3.819-.517-.012-.9.036-.811.7.029.221-.109.348-.328.418-1.206.383-1.811-.048-1.816-1.3,0-.276-.017-.552-.026-.829-.509-.006-1.1-.176-1.023.72.034.374-.336.283-.571.3-.264.016-.43-.088-.425-.382,0-.2,0-.393,0-.589-.01-.527.2-1.181-.748-1.109-.307.024-.273-.3-.278-.514-.008-.364,0-.729-.007-1.094,0-.236-.05-.517-.333-.488-.921.1-.77-.521-.8-1.075-.016-.33.218-.879-.233-.944-.58-.084-.864-.229-.817-.846.017-.212-.2-.259-.371-.24-.842.1-.509-.586-.668-.957-.176-.411-1.076.142-.978-.7,0-.028,0-.056,0-.084.021-.417-.259-.414-.558-.424-.381-.013-.485.184-.471.52.011.28-.013.562,0,.841.029.48-.047.849-.661.795-.38-.034-.468.2-.466.526.007,1.4.005,2.8,0,4.207,0,.283.053.537.4.492.724-.093.756.338.727.871-.026.475.005.954-.009,1.43-.013.451-.02.861.627.811.266-.021.366.168.41.429.126.759,1.343.717,1.241,1.66a.183.183,0,0,0,.079.015c.808-.122.744.419.73.943s0,1.066,0,1.6c0,.308.034.555.438.558.353,0,.616-.049.592-.489-.022-.389.172-.579.56-.541.456.044.6-.184.565-.6-.028-.332.158-.453.464-.427.208.018.552-.07.528.246-.079,1.006.623.761,1.165.776.464.012,1.005-.128.935.663-.031.354.263.37.528.37,1.038,0,2.075,0,3.113,0,.218,0,.537.027.513-.278-.073-.946.58-.744,1.109-.75s1.066,0,1.6-.005c.186,0,.471.038.463-.228-.018-.588.165-.9.806-.818a.192.192,0,0,0,.225-.2c-.106-.956.558-.828,1.133-.8.591.023,1.169.061,1.069-.82-.009-.081.113-.256.167-.253,1.156.066.773-.787.844-1.379C-1191.823,925.6-1192.019,925.4-1192.584,925.421Z" transform="translate(1270.631 -823.743)" fill="#fffefd"/>
    <path id="Path_60" data-name="Path 60" d="M-1230.716,973.427c-.22.013-.524.017-.489-.3.092-.815-.433-.742-.954-.73s-1.065,0-1.6,0c-.388.007-.684-.086-.639-.553.051-.53-.254-.581-.674-.577-1.514.014-3.031-.048-4.541.026-.846.042-1.2-.2-1.048-1.042-.488.015-1.126-.212-1.036.7.025.251-.177.32-.4.321-.365,0-.729.006-1.093,0-.3,0-.633.06-.651-.424-.015-.411.085-.654.551-.6.368.039.488-.155.485-.5-.01-1.065-.005-2.13,0-3.2,0-.276-.039-.538-.4-.5-.643.075-.661-.32-.637-.781.016-.307.128-.759-.026-.9-.485-.437-.9-1.073-1.394-1.316-.516-.256-.653-.427-.63-.915a6.745,6.745,0,0,0-.01-1.259c-.052-.365.294-.9-.312-1.067-.657-.182-.732.274-.726.767,0,.027-.011.078-.019.078a1.354,1.354,0,0,0-1.31,1.16c-1.052-.105-.792.659-.792,1.222,0,.524.074,1.016-.731.971-.415-.023-.291.406-.293.657-.012,1.261,0,2.523-.011,3.784-.006.466.007.849.644.777.363-.041.385.233.384.5,0,.365,0,.729,0,1.093,0,.255.067.464.368.436.518-.049.49.389.713.636.454.5.959,1.226,1.429,1.42.666.276.673.558.668,1.06,0,.36.01.721.016,1.081.515.031,1.1.2,1.025-.7-.031-.385.328-.288.562-.307.322-.026.372.16.461.442.235.743,1.238.809,1.5,1.579.018.053.317.012.485.012.869,0,1.738,0,2.608,0,.271,0,.636-.059.607.368-.048.694.379.684.86.665.42-.016.841,0,1.262,0,.531-.008,1.19.183,1.093-.762-.026-.255.24-.264.438-.266.392,0,.785,0,1.177-.005.191,0,.477.02.466-.232-.047-1.063.724-.753,1.269-.765.478-.011.919.033.837-.669-.043-.375.254-.378.512-.365.344.016.508-.1.51-.478S-1230.3,973.4-1230.716,973.427Z" transform="translate(1301.557 -860.161)" fill="#fffefd"/>
    <path id="Path_61" data-name="Path 61" d="M-1194.034,1021.977v-.01l-.011,0,.005.006-.006-.006s0,.008,0,.012h.013Z" transform="translate(1254.947 -911.883)" fill="#fffefd"/>
    <path id="Path_62" data-name="Path 62" d="M-1167.5,872.431c-2.1.005-4.208,0-6.312.005-.187,0-.5-.038-.486.2.054,1.173-.8.766-1.38.82-.358.034-.778-.071-.721.518.05.519-.3.49-.653.5-.462.016-.474-.27-.472-.6.006-1.01-.008-2.02.006-3.029.005-.377-.1-.566-.52-.569s-.525.193-.516.567c.016.7.007,1.4,0,2.1,0,.218.026.533-.292.5-.908-.106-.726.519-.731,1.024-.005.533-.016,1.067,0,1.6.014.38-.1.566-.518.564s-.526-.2-.516-.572c.017-.645-.013-1.291.01-1.935.015-.429-.058-.72-.582-.663-.39.042-.459-.206-.455-.529.009-.673-.006-1.346,0-2.02.006-.4-.107-.664-.567-.627-.376.031-.45-.159-.59-.5-.26-.644-1.1-.852-1.374-1.544,0-.011-.056,0-.081-.006-.68-.285-.83-1.178-1.583-1.386-.017,0-.012-.106-.008-.161.026-.414-.132-.616-.581-.614-.479,0-.553.273-.545.654,0,.2-.013.465-.265.442-.951-.087-.75.579-.758,1.108-.008.505,0,1.01,0,1.515,0,.7,0,1.4,0,2.1,0,.187-.042.5.188.492,1.153-.042.815.791.826,1.384.008.452.047.783.625.714.183-.022.473-.042.469.216-.009.582.168.9.811.83a.237.237,0,0,1,.243.282c-.045.519.459.557.632.783a18.691,18.691,0,0,1,1.389,1.558c.185.313.217.582.636.534s.556.148.532.54c-.018.307.006.617,0,.925-.012.351.055.587.493.6.487.013.564-.247.538-.634-.008-.112,0-.224,0-.336,0-1.095,0-1.095,1.067-1.094.2,0,.393,0,.589,0,.224,0,.41.079.381.329-.087.748.4.709.9.7.588-.014,1.178,0,1.767-.006.218,0,.536.026.5-.287-.1-.9.513-.733,1.023-.736.561,0,1.122,0,1.683,0,.191,0,.47.024.456-.239-.032-.616.483-.6.765-.872a9.679,9.679,0,0,1,1.249-1.351c.235-.161.234-.8.855-.749.212.017.258-.2.238-.372-.1-.837.575-.517.949-.671.412-.17-.124-1.073.715-.964.433.057.5-.2.5-.567C-1166.968,872.5-1167.176,872.43-1167.5,872.431Z" transform="translate(1249.911 -782.223)" fill="#fffefd"/>
    <path id="Path_63" data-name="Path 63" d="M-1155.6,813.247c-.421,0-.841,0-1.262,0-.2,0-.457.015-.43.276.091.875-.5.751-1.029.748s-1.065-.006-1.6,0c-.212,0-.554-.053-.537.243.061,1.012-.654.75-1.187.757-.495.007-.984-.058-.907.7.033.318-.206.453-.495.424-.572-.056-.651.271-.617.725.019.251-.005.5,0,.757.014.345-.031.584-.482.595-.473.011-.557-.2-.552-.608.015-1.2,0-2.4,0-3.607-.842-.136-1.1.216-1.041,1.062.078,1.2.012,2.41.024,3.615,0,.378-.1.562-.521.563s-.629-.1-.611-.564c.025-.644.01-1.289,0-1.934,0-.212.057-.555-.232-.548-1.039.023-.781-.711-.792-1.281-.009-.48.088-1-.683-.912-.311.035-.37-.21-.343-.449.061-.537-.251-.593-.669-.569-.335.02-.673,0-1.009,0-.243,0-.492-.036-.462-.341.076-.759-.425-.672-.912-.7-.372-.018-.993.21-1.069-.162-.126-.616-.3-.921-.954-.929-.208,0-.174-.322-.162-.509.024-.389-.119-.552-.529-.551-.448,0-.49.246-.488.594.008,1.29.015,2.579,0,3.869-.007.475.024.846.651.773a.3.3,0,0,1,.356.358c-.05.512.169.715.675.675.3-.023.365.191.361.445a2.878,2.878,0,0,1-.013.837c-.366,1.073,1.463.711,1.134,1.764-.032.1.3.062.442.126.678.306.892,1.145,1.6,1.424.031.012-.022.183.02.239.4.543,1.087.806,1.387,1.485.06.136.686.038,1.049.022.432-.019.8,0,.741.594-.038.4.238.431.548.439.373.009.495-.17.479-.514-.013-.28.025-.564-.007-.84-.064-.558.168-.734.715-.711.924.037,1.85.014,2.775.007.239,0,.607.061.581-.3-.068-.962.57-.833,1.158-.825.476.006.954-.013,1.429.005.4.015.5-.145.657-.532.252-.614,1.11-.8,1.335-1.521.008-.026.17.017.24-.014.662-.3.842-1.138,1.556-1.393.046-.016.011-.264.011-.4,0-.252.013-.505,0-.757-.023-.387.045-.675.531-.625.43.045.487-.21.505-.57C-1154.145,813.246-1154.135,813.247-1155.6,813.247Z" transform="translate(1239.222 -735.646)" fill="#fffefd"/>
    <path id="Path_64" data-name="Path 64" d="M-1186.363,622.509c.589.046.508-.465.735-.7a17.2,17.2,0,0,1,1.286-1.283c.329-.276.533-.614.788-.824.5-.413,1.136-.621,1.242-1.38,1.166.078.789-.793.816-1.375.02-.433.015-.8.607-.724.331.04.433-.153.431-.459-.008-1.093.056-2.191-.026-3.278-.049-.652-1.36-.436-1.125-1.409a1.8,1.8,0,0,0-.322-.063c-.42-.007-.841,0-1.261,0-.257,0-.46.077-.431.374.052.524-.188.707-.683.662-.184-.016-.362.08-.338.282.074.622-.613.581-.719.773a4.606,4.606,0,0,1-1.309,1.44c-.193.15-.043.746-.039,1.138,0,.307-.029.6-.434.542-.673-.092-.726.3-.694.808.026.419-.037.845.014,1.26.1.824-.132,1.288-1.049,1.144,0,.529,0,1.057.009,1.586,0,.254-.069.455-.371.434-.229-.015-.615.122-.612-.234,0-.609-.2-.88-.819-.807a.194.194,0,0,1-.218-.205c.054-.6-.18-.887-.8-.832-.069.006-.221-.137-.216-.2.076-1.053-.691-.785-1.251-.787-.542,0-1.037.019-.949-.765.042-.371-.261-.364-.52-.364-1.738,0-3.475.01-5.213-.007-.508,0-.67.452-.473.624.53.462.873,1.2,1.421,1.464.489.236.585.4.606.848.026.557-.347,1.4.788,1.318.065,0,.207.15.2.22-.086,1,.64.762,1.181.767s1.119-.072,1.013.786c-.039.312.22.34.458.341.364,0,.729.008,1.093,0,.293-.005.514.08.479.418-.06.573.267.622.719.615,1.289-.019,2.578-.012,3.868,0,.23,0,.63-.1.612.245-.052,1.014.646.728,1.176.755q-.007-1.3-.014-2.595C-1186.714,622.794-1186.724,622.481-1186.363,622.509Z" transform="translate(1260.225 -570.101)" fill="#fffefd"/>
    <path id="Path_65" data-name="Path 65" d="M-1119.032,697.969v.011l.01,0v-.009Z" transform="translate(1192.559 -642.425)" fill="#fffefd"/>
    <path id="Path_66" data-name="Path 66" d="M-1312.023,448.978v-.011h-.009v.012Z" transform="translate(1353.072 -435.337)" fill="#fffefd"/>
    <path id="Path_67" data-name="Path 67" d="M-1342.68,403.394c.5,0,1.143-.175,1.027.725a.239.239,0,0,0,.244.281c1-.084.756.608.74,1.159h.01l0,.011h-.005v.006l-.008-.005s0-.007,0-.011c-1.034,0-2.069-.012-3.1-.01-.531,0-1.191-.186-1.1.76.026.26-.244.258-.44.262-.308.006-.618.02-.925,0-.422-.028-.512.159-.715.545-.294.562-1.02.862-1.357,1.481-.033.06-.266.013-.406.014-.28,0-.562.019-.841,0-.5-.039-.658.321-.489.626.295.533,1.25.559,1.167,1.441a1.032,1.032,0,0,0,.3.085,1.473,1.473,0,0,0,.252.005c1.991,0,3.983-.013,5.974.01.493.006.742-.115.686-.651-.039-.376.21-.478.532-.479s.618-.016.925,0c.417.022.577-.1.726-.56.2-.611,1.181-.681,1.285-1.484a2.321,2.321,0,0,1,.483-.017q1.132,0,2.264-.006c.2-.81-.118-1.059-.939-1.022-1.2.053-1.067.168-1.079-1.056,0-.2.006-.393,0-.588-.011-.294.074-.515.415-.481.574.057.62-.276.616-.725q-.023-2.4,0-4.791c.005-.472-.018-.836-.649-.769-.442.047-.346-.316-.385-.582-.09-.611.421-1.572-.855-1.516a1.372,1.372,0,0,0-1.169-1.3c.138-1.006-1.533-.679-1.3-1.76a1.387,1.387,0,0,0-.155-.038c-.532-.09-.728.1-.739.671-.011.552.426,1.441-.778,1.4-.293-.01-.218.343-.22.551-.008,1.345.018,2.69-.012,4.034-.018.826,1.491.55,1.12,1.618-.031.089.286.122.448.112.44-.029.492.228.494.583,0,.4-.221.451-.539.449-.837-.006-1.674,0-2.511,0C-1343.747,403.39-1343.743,403.387-1342.68,403.394Z" transform="translate(1384.739 -388.732)" fill="#fffefd"/>
    <path id="Path_68" data-name="Path 68" d="M-1200.025,535.976s0-.007,0-.01h-.008v.011Z" transform="translate(1259.926 -507.691)" fill="#fffefd"/>
    <path id="Path_69" data-name="Path 69" d="M-1241.641,495.156c.061.575-.368,1.453.817,1.379.165-.01.208.182.192.319-.059.521.179.7.678.664.374-.026.347.274.355.528.009.287-.054.5-.407.485-.307-.01-.617-.015-.924,0-.44.027-.7-.026-.746-.6-.059-.679-1.437-.321-1.207-1.357-.134-.028-.267-.061-.4-.081a1.744,1.744,0,0,0-.251,0c-1.232,0-2.464.011-3.7-.006-.471-.007-.845.02-.78.649.031.3-.19.366-.443.365-.364,0-.728.014-1.091,0-.346-.013-.519.108-.507.48.01.3.019.588.43.543.5-.055.621.185.608.637-.021.726.895.117.963.615.073.532.135.93.82.821a4.883,4.883,0,0,1,.922,0c.2.007.456.066.43.3-.11.97.553.816,1.125.814.728,0,1.456-.011,2.183,0,.526.01,1.053.073.936-.738-.041-.282.159-.387.424-.386.364,0,.728,0,1.092,0,.267,0,.548-.022.511-.381-.072-.708.383-.664.852-.653.443.01.888-.01,1.332-.017q-.011-.54-.022-1.081c-.011-.5-.118-1.062.708-.968.25.029.317-.176.317-.4,0-.336.021-.673,0-1.007-.031-.456.124-.588.595-.77.571-.219.716-1.117,1.447-1.3.023-.006.012-.158.012-.242,0-1.371,0-2.743,0-4.114,0-.21.052-.549-.257-.519-.94.089-.762-.547-.767-1.084,0-.512.156-1.11-.735-1.038-.364.029-.295-.351-.282-.582.032-.591-.642-.608-.683-.483-.255.775-1,1.026-1.467,1.556-.028.032.016.132-.013.161-.46.465-1.137.725-1.348,1.429-.005.018-.107.014-.161.008-.478-.06-.545.212-.542.608.013,1.536,0,3.071,0,4.607h.012c.005.005.009.012.014.017l-.015,0v.007l-.012-.01v-.011l-1,.009A6.2,6.2,0,0,0-1241.641,495.156Z" transform="translate(1301.527 -466.044)" fill="#fffefd"/>
    <path id="Path_70" data-name="Path 70" d="M-1209.538,554.26a1.63,1.63,0,0,0-.42,0c-.425.04-.508-.168-.712-.546-.3-.566-1.012-.888-1.363-1.5-.036-.062-.266-.015-.406-.015-1.6,0-3.195.01-4.792-.006-.477,0-.84.034-.777.657.036.363-.245.4-.511.377-.425-.031-.51.191-.511.563s.178.485.515.469c.263-.012.544,0,.508.375-.051.525.185.71.683.657.175-.018.394.05.39.235-.024,1.036.727.755,1.283.76.476,0,.919-.039.846.663-.038.362.25.375.514.375q2.606,0,5.213,0c.278,0,.515-.044.506-.4-.01-.368.026-.647.528-.645s.615.259.614.682c0,.368.278.352.536.36.3.009.484-.092.478-.427-.006-.364,0-.729,0-1.093,0-.268.021-.544.383-.508.538.054.479-.415.694-.641a14.835,14.835,0,0,1,1.382-1.366c.281-.225.682-.214.629-.724-.018-.173.054-.4.23-.4,1.18.056.879-.8.873-1.428,0-.473.084-.761.638-.7.353.039.4-.2.4-.486-.005-1.065,0-2.13,0-3.195,0-.216.038-.531-.286-.5-.98.1-.72-.6-.733-1.107s.12-1.055-.715-.969c-.393.041-.413-.3-.413-.59,0-.406-.267-.421-.57-.424s-.455.136-.46.452c0,.208.059.56-.238.538-.988-.072-.792.607-.781,1.159.011.527.075,1.036-.735.941-.318-.038-.289.278-.29.5-.006.673-.01,1.345,0,2.018.006.366-.006.695-.511.647s-.53.263-.524.638c.011.785,0,1.57,0,2.354,0,1.183,0,1.187-1.139,1.236C-1208.408,554.048-1208.707,554.4-1209.538,554.26Z" transform="translate(1275.723 -513.352)" fill="#fffefd"/>
    <path id="Path_71" data-name="Path 71" d="M-1157.023,604.978s0-.006,0-.009l-.011,0v.008Z" transform="translate(1224.166 -565.08)" fill="#fffefd"/>
    <path id="Path_72" data-name="Path 72" d="M-1244.025,498.973v-.008l-.011,0v.009Z" transform="translate(1296.522 -476.92)" fill="#fffefd"/>
    <path id="Path_73" data-name="Path 73" d="M-1285.525,448.25l0,.012h-.006a.034.034,0,0,1,0,.006l-.009-.006v-.012c-1.844,0-3.687.013-5.531,0-.449,0-.542.184-.772.578-.324.553-.954.947-1.349,1.535-.132.2-.767-.047-.748.6.018.612.435.449.766.483.146.015.332.051.323.2-.067,1.177.8.778,1.38.809.432.023.791.015.723.606-.046.4.233.436.541.434,1.036-.005,2.071,0,3.107,0,.186,0,.5.041.495-.182-.041-1.22.855-.755,1.445-.843.228-.034.655.091.613-.234-.117-.894.61-.72,1.037-.929.312-.214-.115-.869.523-.883.416-.01.833,0,1.25,0,.216,0,.423.066.393.315-.11.906.545.678,1.023.719.053-1.109.049-1.11-1.052-1.163h0c.1-.558.19-1.094-.68-1.021-.263.022-.3-.214-.287-.417s-.083-.566.213-.548c1.136.067.783-.75.791-1.306.007-.5.034-.9.675-.892.3,0,.363-.195.363-.448,0-1.793,0-3.586,0-5.379,0-.169-.025-.4-.232-.38-.98.09-.789-.6-.785-1.153,0-.51.106-1.041-.72-.961-.367.035-.3-.333-.306-.569,0-.327-.164-.439-.471-.439s-.578.033-.554.434c.03.5-.365.451-.653.64-.548.358-.866,1.027-1.488,1.363-.072.039-.014.319-.014.487,0,1.457,0,2.913,0,4.37,0,.508-.167,1.142.73,1.033.077-.009.242.109.244.173a6.688,6.688,0,0,1-.017,1.748c-.1.416-.632.13-.96.23q-.006.5-.011,1Z" transform="translate(1338.021 -425.194)" fill="#fffefd"/>
    <path id="Path_74" data-name="Path 74" d="M-1132.032,660.974v.008h.011s0-.007,0-.011Z" transform="translate(1203.37 -611.657)" fill="#fffefd"/>
    <path id="Path_75" data-name="Path 75" d="M-1137.115,642.861c.1-.852-.2-1.187-1.036-1.027a20.458,20.458,0,0,1-.021,2.145c-.09.832.188,1.182,1.02,1.046A21.467,21.467,0,0,1-1137.115,642.861Z" transform="translate(1208.49 -595.707)" fill="#fffefd"/>
    <path id="Path_76" data-name="Path 76" d="M-1157.018,965.965h-.011s0,.008,0,.011h.011S-1157.018,965.969-1157.018,965.965Z" transform="translate(1224.16 -865.309)" fill="#fffefd"/>
    <path id="Path_77" data-name="Path 77" d="M-1155.823,954.181c0-.139-.007-.278,0-.417.018-.367-.113-.574-.519-.578s-.623.138-.611.579c.014.523-.006,1.048-.011,1.572C-1155.659,955.339-1155.84,955.455-1155.823,954.181Z" transform="translate(1224.106 -854.68)" fill="#fffefd"/>
    <path id="Path_78" data-name="Path 78" d="M-1163.02,591.977s0-.007,0-.01l-.012.012Z" transform="translate(1229.152 -554.266)" fill="#fffefd"/>
    <path id="Path_79" data-name="Path 79" d="M-1163.159,593.034c-.122.824.179,1.177,1.009,1.039a8.379,8.379,0,0,1,.039-1.151c.143-.867-.234-1.153-1.036-1.029A7.83,7.83,0,0,1-1163.159,593.034Z" transform="translate(1229.28 -554.182)" fill="#fffefd"/>
    <path id="Path_80" data-name="Path 80" d="M-1175.362,568.025c-.144.871.238,1.152,1.039,1.028a7.874,7.874,0,0,1,.01-1.14c.12-.819-.173-1.181-1.007-1.039A8.594,8.594,0,0,1-1175.362,568.025Z" transform="translate(1239.432 -533.372)" fill="#fffefd"/>
    <path id="Path_81" data-name="Path 81" d="M-1175.014,566.984v-.008h-.011v.009Z" transform="translate(1239.126 -533.482)" fill="#fffefd"/>
    <path id="Path_82" data-name="Path 82" d="M-1324.112,443.775a8.027,8.027,0,0,1,1.148-.015c.14-.894-.306-1.14-1.118-1.029a9.358,9.358,0,0,1-1.062.031C-1325.3,443.6-1324.94,443.9-1324.112,443.775Z" transform="translate(1364.004 -430.131)" fill="#fffefd"/>
    <path id="Path_83" data-name="Path 83" d="M-1325.034,442.968l0-.011h0l-.013,0s0,.009,0,.014Z" transform="translate(1363.894 -430.337)" fill="#fffefd"/>
    <path id="Path_84" data-name="Path 84" d="M-1169.028,579.969v-.01l-.013,0s0,.007,0,.011Z" transform="translate(1234.15 -544.28)" fill="#fffefd"/>
    <path id="Path_85" data-name="Path 85" d="M-1163.022,591.967l-.012,0s0,.007,0,.01Z" transform="translate(1229.154 -554.266)" fill="#fffefd"/>
    <path id="Path_86" data-name="Path 86" d="M-1169.2,580.86c-.12.843.246,1.1,1.02.937a8.162,8.162,0,0,1,.019-1.076c.119-.84-.243-1.1-1.018-.937A8.288,8.288,0,0,1-1169.2,580.86Z" transform="translate(1234.302 -544.095)" fill="#fffefd"/>
    <path id="Path_87" data-name="Path 87" d="M-1143.652,629.734c-.214,0-.526-.1-.605.13a2.9,2.9,0,0,0-.027,1.715c.115.4.622.141.955.194q0-.825,0-1.65C-1143.329,629.9-1143.4,629.736-1143.652,629.734Z" transform="translate(1213.657 -585.657)" fill="#fffefd"/>
    <path id="Path_88" data-name="Path 88" d="M-1138.033,641.959v.013l.011,0v-.009Z" transform="translate(1208.361 -595.843)" fill="#fffefd"/>
    <path id="Path_89" data-name="Path 89" d="M-1193,1010.8a2.019,2.019,0,0,1,0-.5c.028-.386-.132-.541-.53-.542-.426,0-.51.213-.5.571.015.5.009.991.01,1.486C-1193.2,1011.969-1192.85,1011.644-1193,1010.8Z" transform="translate(1254.936 -901.729)" fill="#fffefd"/>
    <path id="Path_90" data-name="Path 90" d="M-1298.1,1103.432c0-.213.109-.526-.123-.606a2.969,2.969,0,0,0-1.714-.032c-.414.11-.144.616-.2.947.549.006,1.1.012,1.647.016C-1298.266,1103.759-1298.1,1103.678-1298.1,1103.432Z" transform="translate(1343.204 -979.014)" fill="#fffefd"/>
    <path id="Path_91" data-name="Path 91" d="M-1300.021,1108.964h-.013s0,.008,0,.012h.011S-1300.022,1108.968-1300.021,1108.964Z" transform="translate(1343.093 -984.237)" fill="#fffefd"/>
    <path id="Path_92" data-name="Path 92" d="M-1213.019,523.974s0-.007,0-.01h-.01v.012Z" transform="translate(1270.735 -497.71)" fill="#fffefd"/>
    <path id="Path_93" data-name="Path 93" d="M-1212.745,524.872c.859-.035.76.582.944,1.035l1.006.042c.111-.791-.142-1.2-1.017-.961h0c-.054-1.1-.055-1.1-1.16-1.048C-1212.887,524.268-1213.141,524.888-1212.745,524.872Z" transform="translate(1270.689 -497.676)" fill="#fffefd"/>
    <path id="Path_94" data-name="Path 94" d="M-1231.025,1058.978h.01v-.008l-.008,0Z" transform="translate(1285.7 -942.657)" fill="#fffefd"/>
    <path id="Path_95" data-name="Path 95" d="M-1237.971,1060.195c1.134-.03,1.138-.035,1.169-1.17C-1237.944,1059.049-1237.948,1059.053-1237.971,1060.195Z" transform="translate(1291.477 -942.704)" fill="#fffefd"/>
    <path id="Path_96" data-name="Path 96" d="M-1238.024,1065.984v-.01h-.01Z" transform="translate(1291.529 -948.482)" fill="#fffefd"/>
    <path id="Path_97" data-name="Path 97" d="M-1261.794,480.871c.168-.984-.4-1.108-1.168-1C-1262.91,480.935-1262.906,480.939-1261.794,480.871Z" transform="translate(1312.261 -461.013)" fill="#fffefd"/>
    <path id="Path_98" data-name="Path 98" d="M-1263.015,479.978v-.01h-.008l0,.011Z" transform="translate(1312.314 -461.12)" fill="#fffefd"/>
    <path id="Path_99" data-name="Path 99" d="M-1255.085,487.048c.112-.77-.021-1.331-1-1.168C-1256.151,487-1256.148,487-1255.085,487.048Z" transform="translate(1306.562 -466.014)" fill="#fffefd"/>
    <path id="Path_100" data-name="Path 100" d="M-1256.021,485.978v-.008h-.009s0,.006,0,.009Z" transform="translate(1306.497 -466.112)" fill="#fffefd"/>
    <path id="Path_101" data-name="Path 101" d="M-1250.028,492.971l0-.012h-.011s0,.009,0,.013Z" transform="translate(1301.513 -471.924)" fill="#fffefd"/>
    <path id="Path_102" data-name="Path 102" d="M-1249.194,493.91c.026-1.065.022-1.07-1-1C-1250.375,493.757-1249.987,494.036-1249.194,493.91Z" transform="translate(1301.679 -471.863)" fill="#fffefd"/>
    <path id="Path_103" data-name="Path 103" d="M-1225.036,1052.976h.011v-.011h-.012S-1225.036,1052.972-1225.036,1052.976Z" transform="translate(1280.72 -937.664)" fill="#fffefd"/>
    <path id="Path_104" data-name="Path 104" d="M-1231.273,1053.889c.894.225,1.115-.222,1-1C-1231.055,1052.77-1231.5,1052.99-1231.273,1053.889Z" transform="translate(1285.956 -937.576)" fill="#fffefd"/>
    <path id="Path_105" data-name="Path 105" d="M-1243.963,1066.919c.78.114,1.221-.111,1-1C-1243.957,1065.855-1243.961,1065.858-1243.963,1066.919Z" transform="translate(1296.46 -948.419)" fill="#fffefd"/>
    <path id="Path_106" data-name="Path 106" d="M-1238.024,1065.985l-.01-.01,0,.01Z" transform="translate(1291.529 -948.484)" fill="#fffefd"/>
    <path id="Path_107" data-name="Path 107" d="M-1287.259,1097.173a.75.75,0,0,0,.073.643.6.6,0,0,0,.634.092c.549-.166.2-.654.309-.985-.163-.009-.327-.026-.49-.022C-1286.949,1096.907-1287.212,1096.858-1287.259,1097.173Z" transform="translate(1332.498 -974.204)" fill="#fffefd"/>
    <path id="Path_108" data-name="Path 108" d="M-1281.05,1096.981h.013s0-.007,0-.011h-.01S-1281.049,1096.978-1281.05,1096.981Z" transform="translate(1327.304 -974.263)" fill="#fffefd"/>
    <path id="Path_109" data-name="Path 109" d="M-1368.059,1133.979h.015l-.011-.012S-1368.057,1133.975-1368.059,1133.979Z" transform="translate(1399.667 -1005.031)" fill="#fffefd"/>
    <path id="Path_110" data-name="Path 110" d="M-1294.021,467.98s0-.007,0-.011l-.01.011Z" transform="translate(1338.099 -451.141)" fill="#fffefd"/>
    <path id="Path_111" data-name="Path 111" d="M-1194.019,535.985s0-.01,0-.014l-.012.011Z" transform="translate(1254.933 -507.696)" fill="#fffefd"/>
    <path id="Path_112" data-name="Path 112" d="M-1244.024,504.978s0-.008,0-.012l-.011.012Z" transform="translate(1296.519 -481.91)" fill="#fffefd"/>
  </g>
</svg>
