<svg width="1442" height="887" viewBox="0 0 1442 887" fill="none" xmlns="http://www.w3.org/2000/svg">
<path d="M14 837.476V57.8095C67.2915 48.8478 197.117 30.9245 290.086 30.9245C383.055 30.9245 550.945 61.8423 623.269 77.3012L826.135 78.7572C892.861 54.3366 1054.93 4.82326 1169.39 2.13475C1283.86 -0.553749 1370.47 37.6457 1426 57.8095V861C1365.1 846.437 1217.89 817.312 1116.33 817.312C1014.76 817.312 845.168 846.437 773.068 861H623.269C554.528 846.437 391.653 817.312 290.086 817.312C188.518 817.312 63.7088 830.754 14 837.476Z" stroke="white" stroke-width="3"/>
<path d="M1427 68.5L1440.5 76.5V885L1282 863C1243.17 852.167 1155.1 831 1113.5 833C1071.9 835 1000.17 842.167 969.5 845.5L773.5 885H620L470.5 845.5C437 841.333 358.7 833 313.5 833C268.3 833 155 841.333 104 845.5L1.5 855.5V79.5L13 73.5" stroke="white" stroke-width="3"/>
<path d="M716 102.5V817" stroke="white" stroke-width="3"/>
</svg>
